<?xml version="1.0" encoding="UTF-8" standalone="no"?>
<!-- Created with Inkscape (http://www.inkscape.org/) -->

<svg
   width="116mm"
   height="116mm"
   viewBox="0 0 116 116"
   version="1.1"
   id="svg8"
   inkscape:version="1.1.2 (0a00cf5339, 2022-02-04)"
   sodipodi:docname="master_icon.svg"
   inkscape:export-filename="/home/jody/files/code/apps/nmea_dashboard/icon_120.png"
   inkscape:export-xdpi="26.275862"
   inkscape:export-ydpi="26.275862"
   xmlns:inkscape="http://www.inkscape.org/namespaces/inkscape"
   xmlns:sodipodi="http://sodipodi.sourceforge.net/DTD/sodipodi-0.dtd"
   xmlns:xlink="http://www.w3.org/1999/xlink"
   xmlns="http://www.w3.org/2000/svg"
   xmlns:svg="http://www.w3.org/2000/svg"
   xmlns:rdf="http://www.w3.org/1999/02/22-rdf-syntax-ns#"
   xmlns:cc="http://creativecommons.org/ns#"
   xmlns:dc="http://purl.org/dc/elements/1.1/">
  <defs
     id="defs2">
    <linearGradient
       gradientTransform="matrix(1.0062219,0,0,1.040126,-1.6264489,-3.1644495)"
       inkscape:collect="always"
       xlink:href="#linearGradient894"
       id="linearGradient896"
       x1="120.85789"
       y1="64.875366"
       x2="121.23586"
       y2="147.08519"
       gradientUnits="userSpaceOnUse" />
    <linearGradient
       inkscape:collect="always"
       id="linearGradient894">
      <stop
         style="stop-color:#91c9ee;stop-opacity:1"
         offset="0"
         id="stop890" />
      <stop
         style="stop-color:#bcd9cf;stop-opacity:1"
         offset="1"
         id="stop892" />
    </linearGradient>
  </defs>
  <sodipodi:namedview
     id="base"
     pagecolor="#ffffff"
     bordercolor="#666666"
     borderopacity="1.0"
     inkscape:pageopacity="0.0"
     inkscape:pageshadow="2"
     inkscape:zoom="1.4524065"
     inkscape:cx="212.75036"
     inkscape:cy="331.86301"
     inkscape:document-units="mm"
     inkscape:current-layer="layer3"
     showgrid="false"
     inkscape:window-width="2560"
     inkscape:window-height="1363"
     inkscape:window-x="0"
     inkscape:window-y="0"
     inkscape:window-maximized="1"
     inkscape:snap-global="true"
     inkscape:snap-bbox="true"
     inkscape:pagecheckerboard="true"
     width="115.28272mm" />
  <metadata
     id="metadata5">
    <rdf:RDF>
      <cc:Work
         rdf:about="">
        <dc:format>image/svg+xml</dc:format>
        <dc:type
           rdf:resource="http://purl.org/dc/dcmitype/StillImage" />
      </cc:Work>
    </rdf:RDF>
  </metadata>
  <g
     inkscape:groupmode="layer"
     id="layer3"
     inkscape:label="Background"
     style="display:inline"
     transform="translate(-62.744057,-64.166679)">
    <rect
       style="fill:#0e57bb;fill-opacity:1;stroke:none;stroke-width:0.193215;stroke-miterlimit:4;stroke-dasharray:none;stroke-opacity:1"
       id="rect886"
       width="116"
       height="30"
       x="62.744057"
       y="150.16669" />
    <rect
       style="fill:url(#linearGradient896);fill-opacity:1;stroke:none;stroke-width:0.22097;stroke-miterlimit:4;stroke-dasharray:none;stroke-opacity:1"
       id="rect888"
       width="116"
       height="86"
       x="62.744057"
       y="64.166679" />
    <text
       xml:space="preserve"
       style="font-style:normal;font-variant:normal;font-weight:normal;font-stretch:normal;font-size:19.7556px;line-height:1.25;font-family:'Fredoka One';-inkscape-font-specification:'Fredoka One, Normal';font-variant-ligatures:normal;font-variant-caps:normal;font-variant-numeric:normal;font-feature-settings:normal;text-align:start;letter-spacing:0px;word-spacing:0px;writing-mode:lr-tb;text-anchor:start;display:inline;fill:#000000;fill-opacity:1;stroke:none;stroke-width:0.264583"
       x="27.585541"
       y="135.19353"
       id="text4634-6-5"
       inkscape:export-xdpi="96"
       inkscape:export-ydpi="96" />
  </g>
  <g
     style="display:none"
     inkscape:label="BoatCutter"
     id="g861"
     inkscape:groupmode="layer"
     transform="translate(-62.744057,-64.166679)">
    <path
       style="color:#000000;font-style:normal;font-variant:normal;font-weight:normal;font-stretch:normal;font-size:medium;line-height:normal;font-family:sans-serif;font-variant-ligatures:normal;font-variant-position:normal;font-variant-caps:normal;font-variant-numeric:normal;font-variant-alternates:normal;font-feature-settings:normal;text-indent:0;text-align:start;text-decoration:none;text-decoration-line:none;text-decoration-style:solid;text-decoration-color:#000000;letter-spacing:normal;word-spacing:normal;text-transform:none;writing-mode:lr-tb;direction:ltr;text-orientation:mixed;dominant-baseline:auto;baseline-shift:baseline;text-anchor:start;white-space:normal;shape-padding:0;clip-rule:nonzero;display:inline;overflow:visible;visibility:visible;opacity:1;isolation:auto;mix-blend-mode:normal;color-interpolation:sRGB;color-interpolation-filters:linearRGB;solid-color:#000000;solid-opacity:1;vector-effect:none;fill:#f137ff;fill-opacity:1;fill-rule:nonzero;stroke:none;stroke-width:5.265;stroke-linecap:butt;stroke-linejoin:round;stroke-miterlimit:4;stroke-dasharray:none;stroke-dashoffset:0;stroke-opacity:1;color-rendering:auto;image-rendering:auto;shape-rendering:auto;text-rendering:auto;enable-background:accumulate"
       d="m 124.06168,78.924003 a 2.632763,2.632763 0 0 0 -0.0248,0.0011 l -2.59777,0.11679 a 2.632763,2.632763 0 0 0 -0.12867,0.01241 2.632763,2.632763 0 0 0 -0.0765,0.0072 2.632763,2.632763 0 0 0 -0.17674,0.02894 2.632763,2.632763 0 0 0 -0.0868,0.01707 2.632763,2.632763 0 0 0 -0.16227,0.04393 2.632763,2.632763 0 0 0 -0.0915,0.02791 2.632763,2.632763 0 0 0 -0.16743,0.06408 2.632763,2.632763 0 0 0 -0.0724,0.02997 2.632763,2.632763 0 0 0 -0.16226,0.08113 2.632763,2.632763 0 0 0 -0.0749,0.04082 2.632763,2.632763 0 0 0 -0.14831,0.09354 2.632763,2.632763 0 0 0 -0.0713,0.04857 2.632763,2.632763 0 0 0 -0.13695,0.106971 2.632763,2.632763 0 0 0 -0.0723,0.06046 2.632763,2.632763 0 0 0 -0.11111,0.106453 2.632763,2.632763 0 0 0 -0.0806,0.08217 2.632763,2.632763 0 0 0 -0.0904,0.105937 2.632763,2.632763 0 0 0 -0.078,0.09715 2.632763,2.632763 0 0 0 -0.0801,0.115755 2.632763,2.632763 0 0 0 -0.0677,0.103871 2.632763,2.632763 0 0 0 -0.0636,0.115239 2.632763,2.632763 0 0 0 -0.0636,0.123507 2.632763,2.632763 0 0 0 -0.0346,0.07751 2.632763,2.632763 0 0 0 -0.0351,0.0801 L 96.739844,137.86567 a 2.632763,2.632763 0 0 0 2.367296,3.59048 l 6.64094,0.2129 -1.01337,1.34669 -9.713623,-0.14469 a 2.632763,2.632763 0 0 0 -2.412257,1.49293 l -2.656686,5.53351 a 2.632763,2.632763 0 0 0 1.907378,3.73052 l 1.095023,0.19689 0.476457,5.2896 a 2.632763,2.632763 0 0 0 2.340424,2.38125 l 1.952853,0.21032 a 2.632763,2.632763 0 0 0 2.872691,-2.15077 l 0.80357,-4.46174 c 6.15966,0.98416 13.31598,1.34513 13.31598,1.34513 a 2.632763,2.632763 0 0 0 0.0129,0 c -3.3533,1.53255 -4.37442,4.92839 -4.37442,4.92839 a 2.632763,2.632763 0 0 0 2.50063,3.21427 c 0,0 2.16421,0.0552 4.43125,0.0398 1.13352,-0.008 2.28972,-0.0314 3.27267,-0.0951 0.49148,-0.0318 0.93378,-0.0706 1.36994,-0.14056 0.21808,-0.035 0.43222,-0.0747 0.70074,-0.15452 0.26851,-0.0798 0.58797,-0.10638 1.19837,-0.64544 0.66433,-0.58667 0.66485,-0.78325 0.84181,-1.08158 0.17697,-0.29834 0.34699,-0.61496 0.53123,-0.9648 0.3685,-0.69968 0.78513,-1.5238 1.21233,-2.31149 0.42719,-0.78769 0.87411,-1.54283 1.20561,-2.00246 0.0923,-0.12793 0.14349,-0.12411 0.22531,-0.17105 1.16228,-0.15753 8.2916,-1.12043 12.14086,-1.49293 2.282,-0.22084 3.61569,-0.56903 4.69222,-1.21491 0.53826,-0.32293 1.02276,-0.75951 1.34928,-1.3193 0.16326,-0.27989 0.28072,-0.58411 0.34519,-0.87437 0.008,-0.0341 0.0112,-0.077 0.017,-0.11576 l -0.001,0.0191 1.46967,-7.31634 a 2.632763,2.632763 0 0 0 -0.92035,-2.55902 2.632763,2.632763 0 0 0 -0.13023,-0.72657 L 126.65377,80.725445 a 2.632763,2.632763 0 0 0 -0.0419,-0.106971 2.632763,2.632763 0 0 0 -0.0481,-0.122989 2.632763,2.632763 0 0 0 -0.0532,-0.108522 2.632763,2.632763 0 0 0 -0.063,-0.124023 2.632763,2.632763 0 0 0 -0.0594,-0.09612 2.632763,2.632763 0 0 0 -0.0847,-0.131776 2.632763,2.632763 0 0 0 -0.0522,-0.0677 2.632763,2.632763 0 0 0 -0.11059,-0.139009 2.632763,2.632763 0 0 0 -0.0574,-0.06098 2.632763,2.632763 0 0 0 -0.12712,-0.130741 2.632763,2.632763 0 0 0 -0.046,-0.03979 2.632763,2.632763 0 0 0 -0.15658,-0.131773 2.632763,2.632763 0 0 0 -0.0418,-0.02997 2.632763,2.632763 0 0 0 -0.17312,-0.118338 2.632763,2.632763 0 0 0 -0.0563,-0.03152 2.632763,2.632763 0 0 0 -0.17518,-0.0956 2.632763,2.632763 0 0 0 -0.0517,-0.02273 2.632763,2.632763 0 0 0 -0.19172,-0.08113 2.632763,2.632763 0 0 0 -0.0398,-0.01291 2.632763,2.632763 0 0 0 -0.21549,-0.06666 2.632763,2.632763 0 0 0 -0.0145,-0.0031 2.632763,2.632763 0 0 0 -0.2434,-0.04909 2.632763,2.632763 0 0 0 -0.0139,-0.0016 2.632763,2.632763 0 0 0 -0.25011,-0.02532 2.632763,2.632763 0 0 0 -0.2248,-0.0031 z"
       id="path855"
       inkscape:connector-curvature="0" />
  </g>
  <g
     inkscape:groupmode="layer"
     id="layer2"
     inkscape:label="Boat outline"
     style="display:inline"
     transform="translate(-62.744057,-64.166679)">
    <path
       style="display:inline;fill:#bcbcbc;fill-opacity:1;stroke:#000000;stroke-width:1.965;stroke-linecap:butt;stroke-linejoin:round;stroke-miterlimit:4;stroke-dasharray:none;stroke-opacity:1"
       d="m 121.55751,81.671833 2.59752,-0.116937 0.37585,62.098424 9.2208,0.96886 11.526,-0.40091 -1.46998,7.3165 c 0,0 0.0668,1.00227 -4.07586,1.40317 -4.30808,0.4169 -12.99194,1.60361 -12.99194,1.60361 -1.46172,0.27073 -4.02674,6.51423 -4.65394,7.06812 -0.6272,0.5539 -9.16341,0.33681 -9.16341,0.33681 0,0 0.59691,-2.63077 3.75378,-3.4367 2.70032,-0.68937 2.46147,-4.84312 -1.83397,-4.70322 0,0 -9.48757,-0.45433 -15.575021,-1.72658 l -1.26128,7.00585 -1.95287,-0.21055 -0.65706,-7.28952 -3.07122,-0.55209 2.65683,-5.53333 11.052181,0.16432 1.99307,-2.64942 12.62848,0.33408 z"
       id="path845"
       inkscape:connector-curvature="0"
       sodipodi:nodetypes="ccccccsczcsccccccccccc" />
    <path
       style="display:inline;fill:#ffffff;fill-opacity:1;stroke:#000000;stroke-width:1.965;stroke-linecap:butt;stroke-linejoin:miter;stroke-miterlimit:4;stroke-dasharray:none;stroke-opacity:1"
       d="m 124.15503,81.554896 20.1538,60.728674 -19.70225,-3.45038 z"
       id="path882"
       inkscape:connector-curvature="0"
       sodipodi:nodetypes="cccc" />
    <path
       style="display:inline;fill:#ffffff;fill-opacity:1;stroke:#000000;stroke-width:1.965;stroke-linecap:butt;stroke-linejoin:miter;stroke-miterlimit:4;stroke-dasharray:none;stroke-opacity:1"
       d="m 99.191449,138.82468 21.459091,0.68716 0.90697,-57.840007 z"
       id="path884"
       inkscape:connector-curvature="0"
       sodipodi:nodetypes="cccc" />
  </g>
  <g
     inkscape:groupmode="layer"
     id="layer5"
     inkscape:label="Numbers"
     style="display:none"
     transform="translate(-62.744057,-64.166679)">
    <text
       xml:space="preserve"
       style="font-style:normal;font-variant:normal;font-weight:normal;font-stretch:normal;font-size:19.7556px;line-height:1.25;font-family:'Fredoka One';-inkscape-font-specification:'Fredoka One, Normal';font-variant-ligatures:normal;font-variant-caps:normal;font-variant-numeric:normal;font-feature-settings:normal;text-align:start;letter-spacing:0px;word-spacing:0px;writing-mode:lr-tb;text-anchor:start;display:inline;fill:#0e57bb;fill-opacity:1;stroke:none;stroke-width:0.264583"
       x="69.205994"
       y="86.100502"
       id="text4634"><tspan
         sodipodi:role="line"
         id="tspan4632"
         x="69.205994"
         y="86.100502"
         style="font-style:normal;font-variant:normal;font-weight:normal;font-stretch:normal;font-size:19.7556px;font-family:'Fredoka One';-inkscape-font-specification:'Fredoka One, Normal';font-variant-ligatures:normal;font-variant-caps:normal;font-variant-numeric:normal;font-feature-settings:normal;text-align:start;writing-mode:lr-tb;text-anchor:start;fill:#0e57bb;fill-opacity:1;stroke-width:0.264583">8.1kt</tspan></text>
    <text
       xml:space="preserve"
       style="font-style:normal;font-variant:normal;font-weight:normal;font-stretch:normal;font-size:19.7556px;line-height:1.25;font-family:'Fredoka One';-inkscape-font-specification:'Fredoka One, Normal';font-variant-ligatures:normal;font-variant-caps:normal;font-variant-numeric:normal;font-feature-settings:normal;text-align:start;letter-spacing:0px;word-spacing:0px;writing-mode:lr-tb;text-anchor:start;display:inline;fill:#91c9ee;fill-opacity:1;stroke:none;stroke-width:0.264583"
       x="144.40395"
       y="170.8577"
       id="text4634-2"><tspan
         sodipodi:role="line"
         id="tspan4632-8"
         x="144.40395"
         y="170.8577"
         style="font-style:normal;font-variant:normal;font-weight:normal;font-stretch:normal;font-size:19.7556px;font-family:'Fredoka One';-inkscape-font-specification:'Fredoka One, Normal';font-variant-ligatures:normal;font-variant-caps:normal;font-variant-numeric:normal;font-feature-settings:normal;text-align:start;writing-mode:lr-tb;text-anchor:start;fill:#91c9ee;fill-opacity:1;stroke-width:0.264583">-4°</tspan></text>
    <text
       xml:space="preserve"
       style="font-style:normal;font-variant:normal;font-weight:normal;font-stretch:normal;font-size:19.7556px;line-height:1.25;font-family:'Fredoka One';-inkscape-font-specification:'Fredoka One, Normal';font-variant-ligatures:normal;font-variant-caps:normal;font-variant-numeric:normal;font-feature-settings:normal;text-align:start;letter-spacing:0px;word-spacing:0px;writing-mode:lr-tb;text-anchor:start;display:inline;fill:#0e57bb;fill-opacity:1;stroke:none;stroke-width:0.264583"
       x="127.78947"
       y="105.33379"
       id="text4634-9"><tspan
         sodipodi:role="line"
         id="tspan4632-3"
         x="127.78947"
         y="105.33379"
         style="font-style:normal;font-variant:normal;font-weight:normal;font-stretch:normal;font-size:19.7556px;font-family:'Fredoka One';-inkscape-font-specification:'Fredoka One, Normal';font-variant-ligatures:normal;font-variant-caps:normal;font-variant-numeric:normal;font-feature-settings:normal;text-align:start;writing-mode:lr-tb;text-anchor:start;fill:#0e57bb;fill-opacity:1;stroke-width:0.264583">3.4m</tspan></text>
    <text
       xml:space="preserve"
       style="font-style:normal;font-variant:normal;font-weight:normal;font-stretch:normal;font-size:19.7556px;line-height:1.25;font-family:'Fredoka One';-inkscape-font-specification:'Fredoka One, Normal';font-variant-ligatures:normal;font-variant-caps:normal;font-variant-numeric:normal;font-feature-settings:normal;text-align:start;letter-spacing:0px;word-spacing:0px;writing-mode:lr-tb;text-anchor:start;display:inline;fill:#91c9ee;fill-opacity:1;stroke:none;stroke-width:0.264583"
       x="69.403549"
       y="170.56136"
       id="text4634-6"><tspan
         sodipodi:role="line"
         id="tspan4632-80"
         x="69.403549"
         y="170.56136"
         style="font-style:normal;font-variant:normal;font-weight:normal;font-stretch:normal;font-size:19.7556px;font-family:'Fredoka One';-inkscape-font-specification:'Fredoka One, Normal';font-variant-ligatures:normal;font-variant-caps:normal;font-variant-numeric:normal;font-feature-settings:normal;text-align:start;writing-mode:lr-tb;text-anchor:start;fill:#91c9ee;fill-opacity:1;stroke-width:0.264583">11:03:21</tspan></text>
    <text
       xml:space="preserve"
       style="font-style:normal;font-variant:normal;font-weight:normal;font-stretch:normal;font-size:19.7556px;line-height:1.25;font-family:'Fredoka One';-inkscape-font-specification:'Fredoka One, Normal';font-variant-ligatures:normal;font-variant-caps:normal;font-variant-numeric:normal;font-feature-settings:normal;text-align:start;letter-spacing:0px;word-spacing:0px;writing-mode:lr-tb;text-anchor:start;display:inline;fill:#0e57bb;fill-opacity:1;stroke:none;stroke-width:0.264583"
       x="124.66805"
       y="85.794289"
       id="text4634-21"><tspan
         sodipodi:role="line"
         id="tspan4632-0"
         x="124.66805"
         y="85.794289"
         style="font-style:normal;font-variant:normal;font-weight:normal;font-stretch:normal;font-size:19.7556px;font-family:'Fredoka One';-inkscape-font-specification:'Fredoka One, Normal';font-variant-ligatures:normal;font-variant-caps:normal;font-variant-numeric:normal;font-feature-settings:normal;text-align:start;writing-mode:lr-tb;text-anchor:start;fill:#0e57bb;fill-opacity:1;stroke-width:0.264583">173M</tspan></text>
    <text
       xml:space="preserve"
       style="font-style:normal;font-variant:normal;font-weight:normal;font-stretch:normal;font-size:19.7556px;line-height:1.25;font-family:'Fredoka One';-inkscape-font-specification:'Fredoka One, Normal';font-variant-ligatures:normal;font-variant-caps:normal;font-variant-numeric:normal;font-feature-settings:normal;text-align:start;letter-spacing:0px;word-spacing:0px;writing-mode:lr-tb;text-anchor:start;display:inline;fill:#0e57bb;fill-opacity:1;stroke:none;stroke-width:0.264583"
       x="124.52977"
       y="144.40291"
       id="text4634-5"><tspan
         sodipodi:role="line"
         id="tspan4632-1"
         x="124.52977"
         y="144.40291"
         style="font-style:normal;font-variant:normal;font-weight:normal;font-stretch:normal;font-size:19.7556px;font-family:'Fredoka One';-inkscape-font-specification:'Fredoka One, Normal';font-variant-ligatures:normal;font-variant-caps:normal;font-variant-numeric:normal;font-feature-settings:normal;text-align:start;writing-mode:lr-tb;text-anchor:start;fill:#0e57bb;fill-opacity:1;stroke-width:0.264583">204.1</tspan></text>
    <text
       xml:space="preserve"
       style="font-style:normal;font-variant:normal;font-weight:normal;font-stretch:normal;font-size:19.7556px;line-height:1.25;font-family:'Fredoka One';-inkscape-font-specification:'Fredoka One, Normal';font-variant-ligatures:normal;font-variant-caps:normal;font-variant-numeric:normal;font-feature-settings:normal;text-align:start;letter-spacing:0px;word-spacing:0px;writing-mode:lr-tb;text-anchor:start;display:inline;fill:#0e57bb;fill-opacity:1;stroke:none;stroke-width:0.264583"
       x="128.00679"
       y="125.29803"
       id="text4634-1"><tspan
         sodipodi:role="line"
         id="tspan4632-08"
         x="128.00679"
         y="125.29803"
         style="font-style:normal;font-variant:normal;font-weight:normal;font-stretch:normal;font-size:19.7556px;font-family:'Fredoka One';-inkscape-font-specification:'Fredoka One, Normal';font-variant-ligatures:normal;font-variant-caps:normal;font-variant-numeric:normal;font-feature-settings:normal;text-align:start;writing-mode:lr-tb;text-anchor:start;fill:#0e57bb;fill-opacity:1;stroke-width:0.264583">4.2ft</tspan></text>
    <text
       xml:space="preserve"
       style="font-style:normal;font-variant:normal;font-weight:normal;font-stretch:normal;font-size:19.7556px;line-height:1.25;font-family:'Fredoka One';-inkscape-font-specification:'Fredoka One, Normal';font-variant-ligatures:normal;font-variant-caps:normal;font-variant-numeric:normal;font-feature-settings:normal;text-align:start;letter-spacing:0px;word-spacing:0px;writing-mode:lr-tb;text-anchor:start;display:inline;fill:#0e57bb;fill-opacity:1;stroke:none;stroke-width:0.264583"
       x="69.205994"
       y="105.33049"
       id="text4634-6-0"><tspan
         sodipodi:role="line"
         id="tspan4632-80-6"
         x="69.205994"
         y="105.33049"
         style="font-style:normal;font-variant:normal;font-weight:normal;font-stretch:normal;font-size:19.7556px;font-family:'Fredoka One';-inkscape-font-specification:'Fredoka One, Normal';font-variant-ligatures:normal;font-variant-caps:normal;font-variant-numeric:normal;font-feature-settings:normal;text-align:start;writing-mode:lr-tb;text-anchor:start;fill:#0e57bb;fill-opacity:1;stroke-width:0.264583">158T</tspan></text>
    <text
       xml:space="preserve"
       style="font-style:normal;font-variant:normal;font-weight:normal;font-stretch:normal;font-size:19.7556px;line-height:1.25;font-family:'Fredoka One';-inkscape-font-specification:'Fredoka One, Normal';font-variant-ligatures:normal;font-variant-caps:normal;font-variant-numeric:normal;font-feature-settings:normal;text-align:start;letter-spacing:0px;word-spacing:0px;writing-mode:lr-tb;text-anchor:start;display:inline;fill:#0e57bb;fill-opacity:1;stroke:none;stroke-width:0.264583"
       x="69.205994"
       y="144.41277"
       id="text4634-6-4"><tspan
         sodipodi:role="line"
         id="tspan4632-80-62"
         x="69.205994"
         y="144.41277"
         style="font-style:normal;font-variant:normal;font-weight:normal;font-stretch:normal;font-size:19.7556px;font-family:'Fredoka One';-inkscape-font-specification:'Fredoka One, Normal';font-variant-ligatures:normal;font-variant-caps:normal;font-variant-numeric:normal;font-feature-settings:normal;text-align:start;writing-mode:lr-tb;text-anchor:start;fill:#0e57bb;fill-opacity:1;stroke-width:0.264583">14°C</tspan></text>
    <text
       xml:space="preserve"
       style="font-style:normal;font-variant:normal;font-weight:normal;font-stretch:normal;font-size:19.7556px;line-height:1.25;font-family:'Fredoka One';-inkscape-font-specification:'Fredoka One, Normal';font-variant-ligatures:normal;font-variant-caps:normal;font-variant-numeric:normal;font-feature-settings:normal;text-align:start;letter-spacing:0px;word-spacing:0px;writing-mode:lr-tb;text-anchor:start;display:inline;fill:#0e57bb;fill-opacity:1;stroke:none;stroke-width:0.264583"
       x="69.403549"
       y="124.86668"
       id="text4634-6-8"><tspan
         sodipodi:role="line"
         id="tspan4632-80-4"
         x="69.403549"
         y="124.86668"
         style="font-style:normal;font-variant:normal;font-weight:normal;font-stretch:normal;font-size:19.7556px;font-family:'Fredoka One';-inkscape-font-specification:'Fredoka One, Normal';font-variant-ligatures:normal;font-variant-caps:normal;font-variant-numeric:normal;font-feature-settings:normal;text-align:start;writing-mode:lr-tb;text-anchor:start;fill:#0e57bb;fill-opacity:1;stroke-width:0.264583">1014</tspan></text>
  </g>
  <g
     style="display:inline"
     inkscape:label="CutNumbers"
     id="g903"
     inkscape:groupmode="layer"
     transform="translate(-62.744057,-64.166679)">
    <text
       xml:space="preserve"
       style="font-style:normal;font-variant:normal;font-weight:normal;font-stretch:normal;font-size:19.7556px;line-height:1.25;font-family:'Fredoka One';-inkscape-font-specification:'Fredoka One, Normal';font-variant-ligatures:normal;font-variant-caps:normal;font-variant-numeric:normal;font-feature-settings:normal;text-align:start;letter-spacing:0px;word-spacing:0px;writing-mode:lr-tb;text-anchor:start;display:inline;fill:#0e57bb;fill-opacity:1;stroke:none;stroke-width:0.264583"
       x="69.184746"
       y="86.266876"
       id="text4634-7"><tspan
         sodipodi:role="line"
         id="tspan4632-6"
         x="69.184746"
         y="86.266876"
         style="font-style:normal;font-variant:normal;font-weight:normal;font-stretch:normal;font-size:19.7556px;font-family:'Fredoka One';-inkscape-font-specification:'Fredoka One, Normal';font-variant-ligatures:normal;font-variant-caps:normal;font-variant-numeric:normal;font-feature-settings:normal;text-align:start;writing-mode:lr-tb;text-anchor:start;fill:#0e57bb;fill-opacity:1;stroke-width:0.264583">8.1kt</tspan></text>
    <text
       xml:space="preserve"
       style="font-style:normal;font-variant:normal;font-weight:normal;font-stretch:normal;font-size:19.7556px;line-height:1.25;font-family:'Fredoka One';-inkscape-font-specification:'Fredoka One, Normal';font-variant-ligatures:normal;font-variant-caps:normal;font-variant-numeric:normal;font-feature-settings:normal;text-align:start;letter-spacing:0px;word-spacing:0px;writing-mode:lr-tb;text-anchor:start;display:inline;fill:#91c9ee;fill-opacity:1;stroke:none;stroke-width:0.264583"
       x="144.38268"
       y="171.02422"
       id="text4634-2-1"><tspan
         sodipodi:role="line"
         id="tspan4632-8-3"
         x="144.38268"
         y="171.02422"
         style="font-style:normal;font-variant:normal;font-weight:normal;font-stretch:normal;font-size:19.7556px;font-family:'Fredoka One';-inkscape-font-specification:'Fredoka One, Normal';font-variant-ligatures:normal;font-variant-caps:normal;font-variant-numeric:normal;font-feature-settings:normal;text-align:start;writing-mode:lr-tb;text-anchor:start;fill:#91c9ee;fill-opacity:1;stroke-width:0.264583">-4°</tspan></text>
    <path
       id="text4634-9-2"
       style="font-style:normal;font-variant:normal;font-weight:normal;font-stretch:normal;font-size:19.7556px;line-height:1.25;font-family:'Fredoka One';-inkscape-font-specification:'Fredoka One, Normal';font-variant-ligatures:normal;font-variant-caps:normal;font-variant-numeric:normal;font-feature-settings:normal;text-align:start;letter-spacing:0px;word-spacing:0px;writing-mode:lr-tb;text-anchor:start;display:inline;fill:#0e57bb;fill-opacity:1;stroke:none;stroke-width:0.999999"
       d="M 268.31055 100.66992 C 265.7221 100.66992 263.35725 101.01795 261.2168 101.71484 C 259.12613 102.41173 257.48373 103.18307 256.28906 104.0293 C 256.02151 104.22705 255.76187 104.4344 255.50781 104.64844 L 260.54297 119.82031 L 260.54492 119.82031 C 261.36619 119.19832 262.06232 118.26593 262.63477 117.02148 L 263.08398 116.125 C 263.33287 115.52767 263.98005 114.93132 265.02539 114.33398 C 266.07073 113.73665 267.38953 113.4375 268.98242 113.4375 C 270.92376 113.4375 272.39116 113.90969 273.38672 114.85547 C 274.38228 115.80125 274.88086 116.79646 274.88086 117.8418 C 274.88086 119.78313 272.9882 120.75391 269.20508 120.75391 C 268.2593 120.75391 267.53879 120.77836 267.04102 120.82812 C 266.59301 120.82812 266.02111 120.95425 265.32422 121.20312 C 264.67711 121.40224 264.17852 121.72583 263.83008 122.17383 C 263.48163 122.62183 263.18248 123.26901 262.93359 124.11523 C 262.77105 124.6679 262.6813 125.3505 262.625 126.09375 L 265.03906 133.36523 C 265.56908 133.57878 266.07094 133.74588 266.51758 133.82031 C 267.11491 133.91987 267.98597 133.9707 269.13086 133.9707 C 271.32109 133.9707 273.01432 134.49373 274.20898 135.53906 C 275.45343 136.53462 276.07617 137.67843 276.07617 138.97266 C 276.07617 140.36644 275.45343 141.61192 274.20898 142.70703 C 273.00867 143.7153 271.15326 144.2318 268.65625 144.26758 L 272.82617 156.83203 C 276.87852 156.16828 280.37835 154.57482 283.31836 152.03906 C 287.30059 148.55461 289.29102 144.15045 289.29102 138.82422 C 289.29102 137.43044 289.0427 136.08524 288.54492 134.79102 C 288.04714 133.49679 287.47524 132.4527 286.82812 131.65625 C 286.2308 130.8598 285.50833 130.11291 284.66211 129.41602 C 283.86566 128.71913 283.3182 128.27138 283.01953 128.07227 C 282.72086 127.87315 282.47255 127.7226 282.27344 127.62305 L 282.27344 127.10156 L 282.86914 126.80273 C 283.26736 126.60362 283.74151 126.28003 284.28906 125.83203 C 284.8864 125.33425 285.4583 124.76235 286.00586 124.11523 C 286.60319 123.41834 287.10178 122.49645 287.5 121.35156 C 287.89822 120.15689 288.09766 118.88697 288.09766 117.54297 C 288.09766 113.26207 286.32915 109.38094 282.79492 105.89648 C 279.26069 102.41203 274.43323 100.66992 268.31055 100.66992 z M 321.17383 101.19141 C 320.07871 101.19141 319.18322 101.46612 318.48633 102.01367 C 317.83922 102.56123 317.39147 103.13313 317.14258 103.73047 C 316.94347 104.3278 316.6932 105.19886 316.39453 106.34375 L 310.19727 131.35742 C 310.04793 132.00453 309.97461 132.80031 309.97461 133.74609 L 309.97461 135.91211 C 310.02439 136.36011 310.14854 136.93202 310.34766 137.62891 C 310.59655 138.27602 310.94458 138.7746 311.39258 139.12305 C 311.84058 139.47149 312.48776 139.76869 313.33398 140.01758 C 314.18021 140.26647 315.2507 140.39258 316.54492 140.39258 L 336.7793 140.39258 L 336.7793 149.50195 L 336.7793 151.66602 C 336.82907 152.11402 336.95323 152.68788 337.15234 153.38477 C 337.40123 154.03188 337.74926 154.52851 338.19727 154.87695 C 338.64527 155.2254 339.29245 155.52455 340.13867 155.77344 C 340.9849 156.02233 342.05538 156.14648 343.34961 156.14648 C 344.9425 156.14648 346.21242 155.99789 347.1582 155.69922 C 348.15376 155.40055 348.82538 154.90197 349.17383 154.20508 C 349.57205 153.45841 349.82037 152.78679 349.91992 152.18945 C 350.01948 151.59212 350.07031 150.72106 350.07031 149.57617 L 350.07031 108.06055 C 350.07031 106.91566 350.01948 106.0446 349.91992 105.44727 C 349.87014 104.84993 349.64627 104.20275 349.24805 103.50586 C 348.84982 102.75919 348.1782 102.23617 347.23242 101.9375 C 346.28664 101.58905 345.04311 101.41602 343.5 101.41602 C 341.90711 101.41602 340.61275 101.56461 339.61719 101.86328 C 338.67141 102.11217 337.99979 102.58631 337.60156 103.2832 C 337.20334 103.98009 336.95307 104.60088 336.85352 105.14844 C 336.80374 105.69599 336.7793 106.54261 336.7793 107.6875 L 336.7793 128.07227 L 324.60938 128.07227 L 329.16406 109.85352 L 329.16406 109.70312 L 329.23828 109.62891 C 329.58673 108.33468 329.76172 107.28863 329.76172 106.49219 C 329.76172 104.25218 328.01766 102.66062 324.5332 101.71484 C 323.28876 101.3664 322.16939 101.19141 321.17383 101.19141 z M 377.32422 116.79688 C 376.32866 116.79687 375.3315 116.99631 374.33594 117.39453 C 373.39016 117.74298 372.61882 118.16628 372.02148 118.66406 C 371.42415 119.11206 370.85224 119.65953 370.30469 120.30664 C 369.75713 120.90398 369.4091 121.32728 369.25977 121.57617 C 369.11043 121.77528 368.98627 121.94832 368.88672 122.09766 C 368.88672 120.40521 368.46341 119.11085 367.61719 118.21484 C 366.77096 117.31884 365.12857 116.87109 362.68945 116.87109 C 361.09656 116.87109 359.82664 117.02165 358.88086 117.32031 C 357.93508 117.61898 357.26346 118.142 356.86523 118.88867 C 356.46701 119.58556 356.21674 120.2308 356.11719 120.82812 C 356.06741 121.37568 356.04297 122.2223 356.04297 123.36719 L 356.04297 149.65039 C 356.04297 150.84506 356.06741 151.71612 356.11719 152.26367 C 356.21674 152.81123 356.44257 153.45841 356.79102 154.20508 C 357.18924 154.95175 357.86086 155.47477 358.80664 155.77344 C 359.75242 156.0721 360.99595 156.2207 362.53906 156.2207 C 364.13195 156.2207 365.40188 156.0721 366.34766 155.77344 C 367.29344 155.47477 367.96506 154.97619 368.36328 154.2793 C 368.7615 153.53263 368.98538 152.88545 369.03516 152.33789 C 369.13471 151.74056 369.18555 150.8695 369.18555 149.72461 L 369.18555 136.50977 C 369.18555 132.17909 370.67739 130.01367 373.66406 130.01367 C 376.75029 130.01367 378.29492 132.17909 378.29492 136.50977 L 378.29492 149.57617 C 378.29492 150.72106 378.31936 151.59212 378.36914 152.18945 C 378.4687 152.73701 378.69257 153.38419 379.04102 154.13086 C 379.43924 154.87753 380.11086 155.42499 381.05664 155.77344 C 382.00242 156.0721 383.2479 156.2207 384.79102 156.2207 C 386.38391 156.2207 387.65188 156.0721 388.59766 155.77344 C 389.54344 155.47477 390.21506 154.95175 390.61328 154.20508 C 391.0115 153.45841 391.23733 152.81123 391.28711 152.26367 C 391.38667 151.71612 391.43555 150.84506 391.43555 149.65039 L 391.43555 136.58398 C 391.43555 134.49331 391.7347 132.87536 392.33203 131.73047 C 392.97914 130.58558 394.17379 130.01367 395.91602 130.01367 C 399.00224 130.01367 400.54492 132.17909 400.54492 136.50977 L 400.54492 149.57617 C 400.54492 150.72106 400.56936 151.59212 400.61914 152.18945 C 400.7187 152.73701 400.94257 153.38419 401.29102 154.13086 C 401.68924 154.87753 402.36086 155.42499 403.30664 155.77344 C 404.25242 156.0721 405.4979 156.2207 407.04102 156.2207 C 408.63391 156.2207 409.90383 156.0721 410.84961 155.77344 C 411.79539 155.47477 412.44257 154.95175 412.79102 154.20508 C 413.18924 153.45841 413.41311 152.81123 413.46289 152.26367 C 413.56245 151.66634 413.61133 150.79528 413.61133 149.65039 L 413.61133 136.58398 C 413.61133 129.51552 412.26808 124.46223 409.58008 121.42578 C 406.89207 118.33955 403.55645 116.79688 399.57422 116.79688 C 397.78221 116.79687 396.0401 117.29546 394.34766 118.29102 C 392.65521 119.2368 391.40973 120.13229 390.61328 120.97852 C 389.86661 121.77496 389.21942 122.5463 388.67188 123.29297 C 386.18298 118.96229 382.40156 116.79688 377.32422 116.79688 z M 300.04297 142.33398 C 298.35052 142.33398 296.98284 142.50702 295.9375 142.85547 C 294.94194 143.20391 294.24393 143.77582 293.8457 144.57227 C 293.44748 145.31893 293.19917 145.99251 293.09961 146.58984 C 293.04983 147.18718 293.02539 148.05824 293.02539 149.20312 L 293.02539 149.50195 C 293.02539 152.14018 293.47314 153.88229 294.36914 154.72852 C 295.41448 155.77385 297.28074 156.29492 299.96875 156.29492 C 301.6612 156.29492 303.00444 156.14632 304 155.84766 C 304.99556 155.49921 305.69357 154.92731 306.0918 154.13086 C 306.5398 153.33441 306.78811 152.66279 306.83789 152.11523 C 306.93745 151.5179 306.98828 150.62045 306.98828 149.42578 L 306.98828 149.12695 C 306.98828 146.48872 306.56497 144.74661 305.71875 143.90039 C 304.57386 142.85505 302.6812 142.33398 300.04297 142.33398 z "
       transform="matrix(0.26458333,0,0,0.26458333,62.744057,64.166679)" />
    <path
       id="text4634-6-59"
       style="font-style:normal;font-variant:normal;font-weight:normal;font-stretch:normal;font-size:19.7556px;line-height:1.25;font-family:'Fredoka One';-inkscape-font-specification:'Fredoka One, Normal';font-variant-ligatures:normal;font-variant-caps:normal;font-variant-numeric:normal;font-feature-settings:normal;text-align:start;letter-spacing:0px;word-spacing:0px;writing-mode:lr-tb;text-anchor:start;display:inline;fill:#91c9ee;fill-opacity:1;stroke:none;stroke-width:0.999999"
       d="M 171.58594 347.19922 C 168.99749 347.19922 166.63264 347.54725 164.49219 348.24414 C 162.40152 348.94103 160.75912 349.71237 159.56445 350.55859 C 158.41956 351.40482 157.39796 352.40003 156.50195 353.54492 C 155.60595 354.64004 155.05849 355.41137 154.85938 355.85938 C 154.66026 356.30738 154.51167 356.65736 154.41211 356.90625 C 153.56589 358.5987 153.14258 359.94194 153.14258 360.9375 C 153.14258 362.82906 154.38806 364.49589 156.87695 365.93945 C 158.37029 366.83546 159.73797 367.28516 160.98242 367.28516 C 163.12287 367.28516 164.76526 366.03968 165.91016 363.55078 L 166.35938 362.6543 C 166.60826 362.05696 167.25545 361.46062 168.30078 360.86328 C 169.34612 360.26595 170.66492 359.9668 172.25781 359.9668 C 174.19915 359.9668 175.66655 360.43899 176.66211 361.38477 C 177.65767 362.33055 178.15625 363.32771 178.15625 364.37305 C 178.15625 366.31438 176.26554 367.28516 172.48242 367.28516 C 171.53664 367.28516 170.81419 367.3096 170.31641 367.35938 C 169.86841 367.35938 169.2965 367.48353 168.59961 367.73242 C 167.9525 367.93153 167.45391 368.25512 167.10547 368.70312 C 166.75702 369.15113 166.45787 369.79831 166.20898 370.64453 C 165.96009 371.49076 165.83594 372.56124 165.83594 373.85547 C 165.83594 375.44836 165.98649 376.71633 166.28516 377.66211 C 166.58382 378.60789 167.08045 379.28146 167.77734 379.67969 C 168.52401 380.02813 169.19563 380.25201 169.79297 380.35156 C 170.3903 380.45112 171.26136 380.5 172.40625 380.5 C 174.59648 380.5 176.28971 381.02302 177.48438 382.06836 C 178.72882 383.06392 179.35156 384.20968 179.35156 385.50391 C 179.35156 386.89769 178.72882 388.14121 177.48438 389.23633 C 176.23993 390.28166 174.29838 390.80469 171.66016 390.80469 C 170.51526 390.80469 169.46922 390.65414 168.52344 390.35547 C 167.57766 390.00702 166.85715 389.63455 166.35938 389.23633 C 165.8616 388.83811 165.41385 388.39036 165.01562 387.89258 C 164.66718 387.34502 164.44331 386.9706 164.34375 386.77148 C 164.29397 386.52259 164.24314 386.34956 164.19336 386.25 L 164.04492 385.87695 C 163.44759 384.38362 162.82485 383.38645 162.17773 382.88867 C 161.53062 382.39089 160.21182 382.14258 158.2207 382.14258 C 153.34247 382.14258 150.90234 383.58554 150.90234 386.47266 C 150.90234 387.51799 151.17705 388.86319 151.72461 390.50586 L 151.87305 391.25195 C 152.02238 391.74973 152.29709 392.39691 152.69531 393.19336 C 153.09354 393.94003 153.59017 394.78664 154.1875 395.73242 C 154.78483 396.62842 155.60701 397.54836 156.65234 398.49414 C 157.74746 399.43992 158.9421 400.31098 160.23633 401.10742 C 161.58033 401.85409 163.22272 402.47683 165.16406 402.97461 C 167.15518 403.47239 169.29615 403.7207 171.58594 403.7207 C 177.60906 403.7207 182.61152 402.00499 186.59375 398.57031 C 190.57598 395.08586 192.56641 390.67975 192.56641 385.35352 C 192.56641 383.95973 192.31809 382.61649 191.82031 381.32227 C 191.56876 380.66822 191.29751 380.0777 191.00781 379.55078 C 190.63952 379.54244 189.39844 379.51953 189.39844 379.51953 A 9.9506003 9.9506003 0 0 1 179.94727 367.37109 C 179.94727 367.37109 182.01285 360.57393 188.01562 354.63867 C 187.43652 353.88518 186.80012 353.14531 186.07031 352.42578 C 182.53608 348.94133 177.70862 347.19922 171.58594 347.19922 z M 45.921875 347.94531 C 44.179649 347.94531 42.661413 348.59249 41.367188 349.88672 L 41.142578 350.03711 L 28.896484 361.08594 C 27.10448 362.67883 26.208984 364.12374 26.208984 365.41797 C 26.208984 366.81175 27.10448 368.50303 28.896484 370.49414 C 30.240487 371.98748 31.685401 372.73438 33.228516 372.73438 C 34.572519 372.73438 36.263794 371.96304 38.304688 370.41992 L 39.275391 369.52344 L 39.275391 396.17969 C 39.275391 397.37436 39.301785 398.29625 39.351562 398.94336 C 39.451118 399.54069 39.699433 400.21232 40.097656 400.95898 C 40.495879 401.65587 41.167501 402.15446 42.113281 402.45312 C 43.059061 402.75179 44.304542 402.90039 45.847656 402.90039 C 47.440549 402.90039 48.708517 402.75179 49.654297 402.45312 C 50.600077 402.15446 51.271699 401.63143 51.669922 400.88477 C 52.068145 400.1381 52.293972 399.49092 52.34375 398.94336 C 52.443306 398.34602 52.492188 397.47497 52.492188 396.33008 L 52.492188 354.74023 C 52.492188 353.74468 52.467747 353.02222 52.417969 352.57422 C 52.417969 352.07644 52.293811 351.48009 52.044922 350.7832 C 51.84581 350.03653 51.52222 349.51351 51.074219 349.21484 C 50.626218 348.8664 49.979037 348.56725 49.132812 348.31836 C 48.286588 348.06947 47.2161 347.94531 45.921875 347.94531 z M 76.310547 347.94531 C 74.568321 347.94531 73.050085 348.59249 71.755859 349.88672 L 71.53125 350.03711 L 59.287109 361.08594 C 57.495105 362.67883 56.599609 364.12374 56.599609 365.41797 C 56.599609 366.81175 57.495105 368.50303 59.287109 370.49414 C 60.631112 371.98748 62.074073 372.73438 63.617188 372.73438 C 64.961191 372.73438 66.654419 371.96304 68.695312 370.41992 L 69.666016 369.52344 L 69.666016 396.17969 C 69.666016 397.37436 69.690456 398.29625 69.740234 398.94336 C 69.83979 399.54069 70.088105 400.21232 70.486328 400.95898 C 70.884551 401.65587 71.556173 402.15446 72.501953 402.45312 C 73.447733 402.75179 74.693214 402.90039 76.236328 402.90039 C 77.829221 402.90039 79.099142 402.75179 80.044922 402.45312 C 80.990702 402.15446 81.662324 401.63143 82.060547 400.88477 C 82.45877 400.1381 82.682644 399.49092 82.732422 398.94336 C 82.831978 398.34602 82.880859 397.47497 82.880859 396.33008 L 82.880859 354.74023 C 82.880859 353.74468 82.856419 353.02222 82.806641 352.57422 C 82.806641 352.07644 82.682483 351.48009 82.433594 350.7832 C 82.234482 350.03653 81.910892 349.51351 81.462891 349.21484 C 81.01489 348.8664 80.367708 348.56725 79.521484 348.31836 C 78.67526 348.06947 77.604772 347.94531 76.310547 347.94531 z M 278.50781 347.94531 C 276.76559 347.94531 275.24735 348.59249 273.95312 349.88672 L 273.73047 350.03711 L 261.48438 361.08594 C 259.69237 362.67883 258.79688 364.12374 258.79688 365.41797 C 258.79688 366.81175 259.69237 368.50303 261.48438 370.49414 C 262.82838 371.98748 264.27134 372.73438 265.81445 372.73438 C 267.15846 372.73438 268.85168 371.96304 270.89258 370.41992 L 271.86328 369.52344 L 271.86328 396.17969 C 271.86328 397.37436 271.88772 398.29625 271.9375 398.94336 C 272.03706 399.54069 272.28537 400.21232 272.68359 400.95898 C 273.08182 401.65587 273.75539 402.15446 274.70117 402.45312 C 275.64695 402.75179 276.89048 402.90039 278.43359 402.90039 C 280.02649 402.90039 281.29641 402.75179 282.24219 402.45312 C 283.18797 402.15446 283.85959 401.63143 284.25781 400.88477 C 284.65604 400.1381 284.87991 399.49092 284.92969 398.94336 C 285.02924 398.34602 285.07812 397.47497 285.07812 396.33008 L 285.07812 354.74023 C 285.07813 353.74468 285.05368 353.02222 285.00391 352.57422 C 285.00391 352.07644 284.87975 351.48009 284.63086 350.7832 C 284.43175 350.03653 284.10816 349.51351 283.66016 349.21484 C 283.21216 348.8664 282.56497 348.56725 281.71875 348.31836 C 280.87253 348.06947 279.80204 347.94531 278.50781 347.94531 z M 115.22852 350.48047 C 113.57979 351.59393 112.22644 352.8873 111.17969 354.36719 C 109.73613 356.3583 108.56592 358.72315 107.66992 361.46094 C 106.77392 364.14894 106.17757 366.58712 105.87891 368.77734 C 105.63002 370.96757 105.50586 373.18382 105.50586 375.42383 C 105.50586 377.86294 105.63002 380.22584 105.87891 382.51562 C 106.17757 384.80541 106.77392 387.29442 107.66992 389.98242 C 108.6157 392.67043 109.81035 394.9864 111.25391 396.92773 C 112.74724 398.86907 114.7885 400.51147 117.37695 401.85547 C 120.01518 403.14969 123.07609 403.79688 126.56055 403.79688 C 129.84589 403.79688 132.7582 403.14969 135.29688 401.85547 C 137.88533 400.56124 139.90214 398.94329 141.3457 397.00195 C 142.78926 395.01084 143.95947 392.69487 144.85547 390.05664 C 145.80125 387.41841 146.42204 384.9558 146.7207 382.66602 C 147.01937 380.32645 147.16992 377.93716 147.16992 375.49805 C 147.16992 373.20826 147.01937 370.94313 146.7207 368.70312 C 146.42204 366.41334 145.82569 363.92433 144.92969 361.23633 C 144.53071 360.03938 144.06235 358.92204 143.54492 357.86328 L 143.06641 360.52344 A 9.9506003 9.9506003 0 0 1 133.43164 368.63086 C 133.77617 370.55825 133.95312 372.81751 133.95312 375.42383 L 133.95312 375.87109 C 133.95312 385.62756 131.39079 390.50586 126.26367 390.50586 C 121.23611 390.50586 118.7207 385.5034 118.7207 375.49805 C 118.7207 371.50478 119.1289 368.31755 119.92969 365.91016 A 9.9506003 9.9506003 0 0 1 115.98242 358.85742 L 115.22852 350.48047 z M 246.19922 351.05078 C 246.17459 351.05412 246.07414 351.06715 246.05078 351.07031 C 245.74154 351.24772 245.54807 351.23328 245.19922 351.7168 C 243.94631 353.45398 242.25715 356.30806 240.64258 359.28516 C 240.11279 360.262 239.60015 361.24936 239.08398 362.23438 C 239.1932 362.34798 239.29681 362.46183 239.38281 362.58008 C 239.83081 363.07786 240.20524 363.67616 240.50391 364.37305 C 240.80257 365.06994 240.97561 365.56657 241.02539 365.86523 C 241.07517 366.11412 241.09961 366.31356 241.09961 366.46289 C 241.09961 368.7029 240.15523 370.81943 238.26367 372.81055 C 236.42189 374.80166 234.1812 376.59265 231.54297 378.18555 C 228.90474 379.72866 226.26713 381.32217 223.62891 382.96484 C 220.99068 384.55774 218.72554 386.49928 216.83398 388.78906 C 214.9922 391.02907 214.07031 393.49168 214.07031 396.17969 C 214.07031 397.97169 214.71749 399.54076 216.01172 400.88477 C 217.30594 402.22877 218.85057 402.90039 220.64258 402.90039 L 249.83594 402.90039 C 250.98083 402.90039 251.85188 402.84956 252.44922 402.75 C 253.09633 402.65044 253.76795 402.42657 254.46484 402.07812 C 255.21151 401.6799 255.73454 401.00828 256.0332 400.0625 C 256.38165 399.11672 256.55664 397.87319 256.55664 396.33008 C 256.55664 394.73719 256.40609 393.46726 256.10742 392.52148 C 255.80875 391.52593 255.31212 390.8543 254.61523 390.50586 C 253.91834 390.10764 253.27116 389.85932 252.67383 389.75977 C 252.07649 389.66021 251.181 389.60938 249.98633 389.60938 L 236.32227 389.60938 L 236.32227 389.23633 L 238.1875 388.49023 C 239.43195 387.99246 240.92574 387.17028 242.66797 386.02539 C 244.45997 384.83072 246.22652 383.46108 247.96875 381.91797 C 249.76075 380.32508 251.27899 378.25938 252.52344 375.7207 C 253.76788 373.18203 254.39062 370.49554 254.39062 367.6582 C 254.39063 362.33197 252.52436 357.60227 248.79102 353.4707 C 247.981 352.56348 247.11469 351.76116 246.19922 351.05078 z M 94.828125 365.04492 C 93.484122 365.04492 92.338358 365.19352 91.392578 365.49219 C 90.496576 365.74108 89.800513 366.04023 89.302734 366.38867 C 88.854733 366.73712 88.506702 367.28458 88.257812 368.03125 C 88.008923 368.77792 87.858372 369.37426 87.808594 369.82227 C 87.758816 370.27027 87.734375 370.96828 87.734375 371.91406 C 87.734375 374.70162 88.182123 376.54345 89.078125 377.43945 C 90.123461 378.48479 91.991681 379.00781 94.679688 379.00781 C 96.372136 379.00781 97.71538 378.85726 98.710938 378.55859 C 99.706495 378.21015 100.40256 377.63824 100.80078 376.8418 C 101.24878 376.04535 101.49905 375.37373 101.54883 374.82617 C 101.64838 374.22884 101.72171 373.33139 101.77148 372.13672 C 101.77148 369.39893 101.32374 367.55711 100.42773 366.61133 C 99.382399 365.56599 97.516131 365.04492 94.828125 365.04492 z M 94.828125 388.86328 C 93.484122 388.86328 92.338358 389.01188 91.392578 389.31055 C 90.496576 389.55944 89.800513 389.85859 89.302734 390.20703 C 88.854733 390.55548 88.506702 391.10294 88.257812 391.84961 C 88.008923 392.59628 87.858372 393.19458 87.808594 393.64258 C 87.758816 394.09058 87.734375 394.78664 87.734375 395.73242 C 87.734375 398.51998 88.182123 400.36181 89.078125 401.25781 C 90.123461 402.30315 91.991681 402.82617 94.679688 402.82617 C 96.372136 402.82617 97.71538 402.67562 98.710938 402.37695 C 99.706495 402.02851 100.40256 401.4566 100.80078 400.66016 C 101.24878 399.86371 101.49905 399.19209 101.54883 398.64453 C 101.64838 398.0472 101.72171 397.1517 101.77148 395.95703 C 101.77148 393.16947 101.32374 391.32764 100.42773 390.43164 C 99.382399 389.3863 97.516131 388.86328 94.828125 388.86328 z M 203.39453 388.86328 C 202.05053 388.86328 200.90476 389.01188 199.95898 389.31055 C 199.06298 389.55944 198.36692 389.85859 197.86914 390.20703 C 197.42114 390.55548 197.07116 391.10294 196.82227 391.84961 C 196.57338 392.59628 196.42478 393.19458 196.375 393.64258 C 196.32522 394.09058 196.30078 394.78664 196.30078 395.73242 C 196.30078 398.51998 196.74853 400.36181 197.64453 401.25781 C 198.68987 402.30315 200.55613 402.82617 203.24414 402.82617 C 204.93659 402.82617 206.27983 402.67562 207.27539 402.37695 C 208.27095 402.02851 208.96896 401.4566 209.36719 400.66016 C 209.81519 399.86371 210.0635 399.19209 210.11328 398.64453 C 210.21284 398.0472 210.28811 397.1517 210.33789 395.95703 C 210.33789 393.16947 209.89014 391.32764 208.99414 390.43164 C 207.9488 389.3863 206.08254 388.86328 203.39453 388.86328 z "
       transform="matrix(0.26458333,0,0,0.26458333,62.744057,64.166679)" />
    <path
       id="text4634-21-1"
       style="font-style:normal;font-variant:normal;font-weight:normal;font-stretch:normal;font-size:19.7556px;line-height:1.25;font-family:'Fredoka One';-inkscape-font-specification:'Fredoka One, Normal';font-variant-ligatures:normal;font-variant-caps:normal;font-variant-numeric:normal;font-feature-settings:normal;text-align:start;letter-spacing:0px;word-spacing:0px;writing-mode:lr-tb;text-anchor:start;display:inline;fill:#0e57bb;fill-opacity:1;stroke:none;stroke-width:0.999999"
       d="M 328.78906 26.818359 C 326.20061 26.818359 323.83771 27.166391 321.69727 27.863281 C 319.60659 28.560172 317.96225 29.333463 316.76758 30.179688 C 315.62269 31.025912 314.60303 32.021124 313.70703 33.166016 C 312.81103 34.261129 312.26356 35.032468 312.06445 35.480469 C 311.86534 35.92847 311.71674 36.276501 311.61719 36.525391 C 310.77096 38.217839 310.34766 39.561083 310.34766 40.556641 C 310.34766 42.4482 311.59118 44.116988 314.08008 45.560547 C 315.57341 46.456549 316.94305 46.904297 318.1875 46.904297 C 320.32795 46.904297 321.97034 45.658816 323.11523 43.169922 L 323.5625 42.275391 C 323.81139 41.678056 324.45857 41.079757 325.50391 40.482422 C 326.54924 39.885087 327.86805 39.585938 329.46094 39.585938 C 331.40228 39.585938 332.87163 40.060079 333.86719 41.005859 C 334.86275 41.951639 335.36133 42.946852 335.36133 43.992188 C 335.36133 45.933525 333.46867 46.904297 329.68555 46.904297 C 328.73977 46.904297 328.01926 46.928738 327.52148 46.978516 C 327.07348 46.978516 326.49962 47.102673 325.80273 47.351562 C 325.15562 47.550674 324.65899 47.874265 324.31055 48.322266 C 323.9621 48.770267 323.66295 49.417448 323.41406 50.263672 C 323.16517 51.109896 323.04102 52.180384 323.04102 53.474609 C 323.04102 55.067502 323.18961 56.337423 323.48828 57.283203 C 323.78695 58.228983 324.28553 58.900605 324.98242 59.298828 C 325.72909 59.647273 326.40071 59.871147 326.99805 59.970703 C 327.59538 60.070259 328.46644 60.121094 329.61133 60.121094 C 331.80156 60.121094 333.49478 60.642164 334.68945 61.6875 C 335.9339 62.683058 336.55469 63.828822 336.55469 65.123047 C 336.55469 66.516828 335.9339 67.760355 334.68945 68.855469 C 333.44501 69.900804 331.50346 70.423828 328.86523 70.423828 C 327.72034 70.423828 326.6743 70.27523 325.72852 69.976562 C 324.78274 69.628117 324.06028 69.253692 323.5625 68.855469 C 323.06472 68.457246 322.61697 68.009498 322.21875 67.511719 C 321.8703 66.964162 321.64643 66.59169 321.54688 66.392578 C 321.4971 66.143689 321.44822 65.968696 321.39844 65.869141 L 321.24805 65.496094 C 320.65071 64.002757 320.02993 63.007545 319.38281 62.509766 C 318.7357 62.011987 317.41494 61.763672 315.42383 61.763672 C 310.54559 61.763672 308.10742 63.206632 308.10742 66.09375 C 308.10742 67.139086 308.38018 68.48233 308.92773 70.125 L 309.07812 70.873047 C 309.22746 71.370826 309.50021 72.018007 309.89844 72.814453 C 310.29666 73.561121 310.79524 74.405783 311.39258 75.351562 C 311.98991 76.247565 312.81209 77.169454 313.85742 78.115234 C 314.95254 79.061014 316.14718 79.932069 317.44141 80.728516 C 318.78541 81.475184 320.4278 82.097924 322.36914 82.595703 C 324.36026 83.093482 326.49928 83.341797 328.78906 83.341797 C 334.81219 83.341797 339.8166 81.624128 343.79883 78.189453 C 347.78106 74.705001 349.77148 70.29889 349.77148 64.972656 C 349.77148 63.578875 349.52317 62.235631 349.02539 60.941406 C 348.52761 59.647181 347.95375 58.601134 347.30664 57.804688 C 346.70931 57.008241 345.9888 56.263297 345.14258 55.566406 C 344.34613 54.869516 343.79867 54.419815 343.5 54.220703 C 343.20133 54.021592 342.95106 53.872993 342.75195 53.773438 L 342.75195 53.25 L 343.34961 52.953125 C 343.74783 52.754013 344.22197 52.430423 344.76953 51.982422 C 345.36687 51.484643 345.93877 50.910784 346.48633 50.263672 C 347.08366 49.566781 347.58029 48.646845 347.97852 47.501953 C 348.37674 46.307284 348.57617 45.037362 348.57617 43.693359 C 348.57617 39.412461 346.80962 35.529374 343.27539 32.044922 C 339.74116 28.56047 334.91174 26.818359 328.78906 26.818359 z M 254.79492 27.566406 C 253.0527 27.566406 251.53446 28.213587 250.24023 29.507812 L 250.01562 29.65625 L 237.77148 40.707031 C 235.97948 42.299924 235.08398 43.742884 235.08398 45.037109 C 235.08398 46.43089 235.97948 48.124119 237.77148 50.115234 C 239.11549 51.608571 240.55845 52.355469 242.10156 52.355469 C 243.44557 52.355469 245.13879 51.58413 247.17969 50.041016 L 248.15039 49.144531 L 248.15039 75.800781 C 248.15039 76.995451 248.17483 77.915387 248.22461 78.5625 C 248.32417 79.159835 248.57248 79.831457 248.9707 80.578125 C 249.36893 81.275015 250.04055 81.773598 250.98633 82.072266 C 251.93211 82.370933 253.17759 82.519531 254.7207 82.519531 C 256.3136 82.519531 257.58352 82.370933 258.5293 82.072266 C 259.47508 81.773598 260.1467 81.250575 260.54492 80.503906 C 260.94314 79.757238 261.16702 79.110057 261.2168 78.5625 C 261.31635 77.965165 261.36523 77.09411 261.36523 75.949219 L 261.36523 34.359375 C 261.36523 33.363817 261.34079 32.643314 261.29102 32.195312 C 261.29102 31.697534 261.16686 31.099234 260.91797 30.402344 C 260.71886 29.655675 260.39527 29.132652 259.94727 28.833984 C 259.49926 28.485539 258.85208 28.188343 258.00586 27.939453 C 257.15964 27.690564 256.08915 27.566406 254.79492 27.566406 z M 271.66992 27.714844 C 270.62459 27.714844 269.80241 27.763725 269.20508 27.863281 C 268.65752 27.962837 268.03673 28.213105 267.33984 28.611328 C 266.69273 28.959773 266.21859 29.606954 265.91992 30.552734 C 265.62125 31.498514 265.47266 32.742042 265.47266 34.285156 C 265.47266 35.828271 265.62125 37.073751 265.91992 38.019531 C 266.21859 38.965311 266.71717 39.636933 267.41406 40.035156 C 268.16073 40.433379 268.83235 40.681694 269.42969 40.78125 C 270.02702 40.880806 270.89808 40.931641 272.04297 40.931641 L 289.06641 40.931641 C 289.06641 41.578753 288.51894 42.722564 287.42383 44.365234 C 286.32871 45.958127 285.00991 47.89967 283.4668 50.189453 C 281.92368 52.429458 280.38101 54.894025 278.83789 57.582031 C 277.29478 60.270037 275.97597 63.330951 274.88086 66.765625 C 273.78575 70.150521 273.23828 73.45975 273.23828 76.695312 C 273.23828 77.840204 273.26272 78.686818 273.3125 79.234375 C 273.41206 79.732154 273.66037 80.279618 274.05859 80.876953 C 274.45682 81.474288 275.104 81.873154 276 82.072266 C 276.94578 82.271377 278.2157 82.371094 279.80859 82.371094 C 281.40149 82.371094 282.64501 82.271377 283.54102 82.072266 C 284.4868 81.873154 285.16037 81.500682 285.55859 80.953125 C 285.95682 80.35579 286.20513 79.808326 286.30469 79.310547 C 286.40424 78.76299 286.45312 77.940817 286.45312 76.845703 C 286.45313 74.456364 287.10031 71.743483 288.39453 68.707031 C 289.68876 65.620802 291.23339 62.60877 293.02539 59.671875 C 294.86717 56.73498 296.68261 53.822664 298.47461 50.935547 C 300.31639 48.048429 301.88546 45.138067 303.17969 42.201172 C 304.47391 39.214498 305.12109 36.59938 305.12109 34.359375 C 305.12109 33.413595 305.09665 32.717532 305.04688 32.269531 C 305.04688 31.771752 304.92076 31.199847 304.67188 30.552734 C 304.47276 29.855844 304.14917 29.33282 303.70117 28.984375 C 303.25317 28.63593 302.60599 28.33678 301.75977 28.087891 C 300.91354 27.839001 299.84501 27.714844 298.55078 27.714844 L 271.66992 27.714844 z M 361.26953 27.714844 C 359.67664 27.714844 358.40867 27.863442 357.46289 28.162109 C 356.51711 28.460777 355.84354 28.9838 355.44531 29.730469 C 355.04709 30.427359 354.79877 31.07454 354.69922 31.671875 C 354.64944 32.219432 354.625 33.066046 354.625 34.210938 L 354.625 75.650391 C 354.625 76.84506 354.64944 77.742509 354.69922 78.339844 C 354.79877 78.937178 355.04709 79.6088 355.44531 80.355469 C 355.84354 81.052359 356.49072 81.548989 357.38672 81.847656 C 358.3325 82.146324 359.57798 82.296875 361.12109 82.296875 C 362.71399 82.296875 363.98195 82.146324 364.92773 81.847656 C 365.87351 81.548989 366.54709 81.052359 366.94531 80.355469 C 367.34354 79.6088 367.56741 78.961619 367.61719 78.414062 C 367.71674 77.816728 367.76562 76.945673 367.76562 75.800781 L 367.76562 50.636719 C 368.01451 50.935386 369.60803 53.127197 372.54492 57.208984 C 375.48182 61.240993 377.4478 63.8786 378.44336 65.123047 L 379.04102 65.943359 C 379.43924 66.441138 380.08642 66.964162 380.98242 67.511719 C 381.9282 68.009498 382.94786 68.259766 384.04297 68.259766 C 385.18786 68.259766 386.23391 67.985057 387.17969 67.4375 C 388.17525 66.840165 388.79799 66.392417 389.04688 66.09375 C 389.29576 65.745305 389.49324 65.446155 389.64258 65.197266 C 390.78747 63.753707 392.55597 61.364415 394.94531 58.029297 C 397.33465 54.6444 399.15008 52.179833 400.39453 50.636719 L 400.39453 75.650391 L 400.39453 77.816406 C 400.44431 78.264407 400.57042 78.836313 400.76953 79.533203 C 401.01842 80.180316 401.36645 80.678899 401.81445 81.027344 C 402.26245 81.375789 402.90964 81.674939 403.75586 81.923828 C 404.60208 82.172718 405.67257 82.296875 406.9668 82.296875 C 408.55969 82.296875 409.82766 82.146324 410.77344 81.847656 C 411.71922 81.548989 412.3664 81.052359 412.71484 80.355469 C 413.11307 79.6088 413.36333 78.961619 413.46289 78.414062 C 413.56245 77.816728 413.61133 76.945673 413.61133 75.800781 L 413.61133 34.359375 C 413.61133 33.214484 413.56245 32.343428 413.46289 31.746094 C 413.41311 31.148759 413.18924 30.477137 412.79102 29.730469 C 412.39279 28.9838 411.71922 28.460777 410.77344 28.162109 C 409.82766 27.863442 408.58413 27.714844 407.04102 27.714844 C 403.85523 27.714844 401.83841 28.386466 400.99219 29.730469 C 398.15485 33.314477 392.50521 40.706225 384.04297 51.90625 L 367.09375 29.65625 L 366.64648 29.208984 C 366.34782 28.860539 365.70064 28.536949 364.70508 28.238281 C 363.7593 27.889836 362.61353 27.714844 361.26953 27.714844 z "
       transform="matrix(0.26458333,0,0,0.26458333,62.744057,64.166679)" />
    <path
       id="text4634-5-9"
       style="font-style:normal;font-variant:normal;font-weight:normal;font-stretch:normal;font-size:19.7556px;line-height:1.25;font-family:'Fredoka One';-inkscape-font-specification:'Fredoka One, Normal';font-variant-ligatures:normal;font-variant-caps:normal;font-variant-numeric:normal;font-feature-settings:normal;text-align:start;letter-spacing:0px;word-spacing:0px;writing-mode:lr-tb;text-anchor:start;display:inline;fill:#0e57bb;fill-opacity:1;stroke:none;stroke-width:0.999999"
       d="M 303.21094 248.38477 L 317.7207 292.10938 A 9.9506003 9.9506003 0 0 1 318.21289 294.85547 A 9.9506003 9.9506003 0 0 1 318.48047 295.08594 C 319.10448 293.87565 319.65687 292.58129 320.12891 291.19141 C 321.07469 288.55318 321.69743 286.08861 321.99609 283.79883 C 322.29476 281.45927 322.44336 279.06998 322.44336 276.63086 C 322.44336 274.34108 322.29476 272.07594 321.99609 269.83594 C 321.69743 267.54615 321.09913 265.05715 320.20312 262.36914 C 319.30712 259.68113 318.11248 257.34268 316.61914 255.35156 C 315.17558 253.36045 313.15876 251.69166 310.57031 250.34766 C 308.42125 249.20992 305.96641 248.55938 303.21094 248.38477 z M 336.63086 248.85547 C 335.53575 248.85547 334.6383 249.12822 333.94141 249.67578 C 333.29429 250.22334 332.84655 250.7972 332.59766 251.39453 C 332.39854 251.99187 332.15023 252.86292 331.85156 254.00781 L 325.6543 279.01953 C 325.50496 279.66664 325.42969 280.46438 325.42969 281.41016 L 325.42969 283.57422 C 325.47947 284.02222 325.60362 284.59608 325.80273 285.29297 C 326.05162 285.94008 326.40161 286.43671 326.84961 286.78516 C 327.29761 287.1336 327.94284 287.43275 328.78906 287.68164 C 329.63529 287.93053 330.70577 288.05469 332 288.05469 L 352.23633 288.05469 L 352.23633 297.16406 L 352.23633 299.33008 C 352.28611 299.77808 352.41026 300.34998 352.60938 301.04688 C 352.85826 301.69399 353.2063 302.19257 353.6543 302.54102 C 354.1023 302.88946 354.74948 303.18666 355.5957 303.43555 C 356.44193 303.68444 357.51242 303.81055 358.80664 303.81055 C 360.39953 303.81055 361.6675 303.66 362.61328 303.36133 C 363.60884 303.06266 364.28241 302.56603 364.63086 301.86914 C 365.02908 301.12247 365.2774 300.4489 365.37695 299.85156 C 365.47651 299.25423 365.52539 298.38317 365.52539 297.23828 L 365.52539 255.72461 C 365.52539 254.57972 365.47651 253.70866 365.37695 253.11133 C 365.32718 252.51399 365.1033 251.86681 364.70508 251.16992 C 364.30686 250.42325 363.63523 249.90023 362.68945 249.60156 C 361.74367 249.25312 360.49819 249.07812 358.95508 249.07812 C 357.36219 249.07813 356.06782 249.22868 355.07227 249.52734 C 354.12649 249.77623 353.45486 250.24842 353.05664 250.94531 C 352.65842 251.6422 352.4101 252.26494 352.31055 252.8125 C 352.26077 253.36006 352.23633 254.20667 352.23633 255.35156 L 352.23633 275.73438 L 340.06445 275.73438 L 344.61914 257.51562 L 344.61914 257.36719 L 344.69336 257.29297 C 345.0418 255.99874 345.2168 254.9527 345.2168 254.15625 C 345.2168 251.91624 343.47469 250.32273 339.99023 249.37695 C 338.74579 249.02851 337.62642 248.85547 336.63086 248.85547 z M 407.04102 249.07812 C 405.29879 249.07813 403.78055 249.72531 402.48633 251.01953 L 402.26172 251.16992 L 390.01758 262.2207 C 388.22557 263.8136 387.32812 265.25656 387.32812 266.55078 C 387.32812 267.94456 388.22557 269.63779 390.01758 271.62891 C 391.36158 273.12224 392.80454 273.86914 394.34766 273.86914 C 395.69166 273.86914 397.38293 273.09585 399.42383 271.55273 L 400.39453 270.6582 L 400.39453 297.31445 C 400.39453 298.50912 400.42093 299.42906 400.4707 300.07617 C 400.57026 300.67351 400.81857 301.34513 401.2168 302.0918 C 401.61502 302.78869 402.28664 303.28727 403.23242 303.58594 C 404.1782 303.8846 405.42368 304.0332 406.9668 304.0332 C 408.55969 304.0332 409.82766 303.8846 410.77344 303.58594 C 411.71922 303.28727 412.39279 302.76425 412.79102 302.01758 C 413.18924 301.27091 413.41311 300.62373 413.46289 300.07617 C 413.56245 299.47884 413.61133 298.60778 413.61133 297.46289 L 413.61133 255.87305 C 413.61133 254.87749 413.58689 254.15699 413.53711 253.70898 C 413.53711 253.21121 413.41295 252.61291 413.16406 251.91602 C 412.96495 251.16935 412.64136 250.64632 412.19336 250.34766 C 411.74536 249.99921 411.09818 249.70201 410.25195 249.45312 C 409.40573 249.20424 408.33524 249.07812 407.04102 249.07812 z M 377.39844 289.99609 C 375.70599 289.99609 374.33635 290.17109 373.29102 290.51953 C 372.29546 290.86798 371.59939 291.43988 371.20117 292.23633 C 370.80295 292.983 370.55268 293.65462 370.45312 294.25195 C 370.40335 294.84929 370.37891 295.72034 370.37891 296.86523 L 370.37891 297.16406 C 370.37891 299.80229 370.82665 301.5444 371.72266 302.39062 C 372.76799 303.43596 374.63621 303.95898 377.32422 303.95898 C 379.01667 303.95898 380.35991 303.81039 381.35547 303.51172 C 382.35103 303.16327 383.04709 302.58941 383.44531 301.79297 C 383.89331 300.99652 384.14358 300.3249 384.19336 299.77734 C 384.29292 299.18001 384.3418 298.28451 384.3418 297.08984 L 384.3418 296.79102 C 384.3418 294.15279 383.91849 292.41068 383.07227 291.56445 C 381.92737 290.51912 380.03667 289.99609 377.39844 289.99609 z "
       transform="matrix(0.26458333,0,0,0.26458333,62.744057,64.166679)" />
    <path
       id="text4634-1-0"
       style="font-style:normal;font-variant:normal;font-weight:normal;font-stretch:normal;font-size:19.7556px;line-height:1.25;font-family:'Fredoka One';-inkscape-font-specification:'Fredoka One, Normal';font-variant-ligatures:normal;font-variant-caps:normal;font-variant-numeric:normal;font-feature-settings:normal;text-align:start;letter-spacing:0px;word-spacing:0px;writing-mode:lr-tb;text-anchor:start;display:inline;fill:#0e57bb;fill-opacity:1;stroke:none;stroke-width:0.999999"
       d="M 377.91992 173.73438 C 372.74302 173.73438 368.78661 175.30345 366.04883 178.43945 C 363.31104 181.52568 361.94141 184.98546 361.94141 188.81836 L 361.94141 192.77539 L 359.47852 192.47656 C 358.88118 192.47656 358.35816 192.55184 357.91016 192.70117 C 357.46216 192.80073 356.98997 193.04904 356.49219 193.44727 C 356.04419 193.84549 355.6942 194.51711 355.44531 195.46289 C 355.19642 196.35889 355.07227 197.50466 355.07227 198.89844 C 355.07227 201.58644 355.4203 203.35299 356.11719 204.19922 C 356.86386 205.04544 357.9099 205.46875 359.25391 205.46875 C 360.05035 205.46875 360.94585 205.39347 361.94141 205.24414 L 361.94141 225.03125 C 361.94141 226.17614 361.9678 227.0472 362.01758 227.64453 C 362.11713 228.24187 362.36545 228.91349 362.76367 229.66016 C 363.16189 230.35705 363.80908 230.88007 364.70508 231.22852 C 365.65086 231.52718 366.89439 231.67773 368.4375 231.67773 C 369.98061 231.67773 371.2261 231.52718 372.17188 231.22852 C 373.16743 230.92985 373.83905 230.43322 374.1875 229.73633 C 374.58572 228.98966 374.83404 228.31608 374.93359 227.71875 C 375.03315 227.12142 375.08398 226.27675 375.08398 225.18164 L 375.08398 205.16992 L 382.32617 205.46875 C 384.21773 205.46875 386.50731 205.39347 389.19531 205.24414 L 389.19531 216.29492 C 389.19531 221.0736 390.61383 224.83253 393.45117 227.57031 C 396.28851 230.3081 400.14716 231.67773 405.02539 231.67773 C 406.1205 231.67773 406.94072 231.65134 407.48828 231.60156 C 408.08562 231.50201 408.75724 231.27813 409.50391 230.92969 C 410.25057 230.53146 410.7736 229.85984 411.07227 228.91406 C 411.42071 227.96828 411.5957 226.72476 411.5957 225.18164 C 411.5957 223.78786 411.47155 222.69098 411.22266 221.89453 C 410.97377 221.09809 410.49962 220.52618 409.80273 220.17773 C 409.15562 219.77951 408.50844 219.55564 407.86133 219.50586 C 407.26399 219.4063 406.34406 219.35742 405.09961 219.35742 C 404.0045 219.35742 403.23316 219.05827 402.78516 218.46094 C 402.38693 217.8636 402.1875 216.89283 402.1875 215.54883 L 402.1875 205.24414 L 407.04102 205.54297 C 408.18591 205.54297 409.03252 205.51853 409.58008 205.46875 C 410.17741 205.36919 410.84903 205.14532 411.5957 204.79688 C 412.34237 204.39865 412.8654 203.72703 413.16406 202.78125 C 413.46273 201.83547 413.61133 200.58999 413.61133 199.04688 C 413.61133 197.45398 413.46273 196.18601 413.16406 195.24023 C 412.8654 194.29445 412.34237 193.64727 411.5957 193.29883 C 410.89881 192.90061 410.25163 192.67673 409.6543 192.62695 C 409.10674 192.5274 408.26013 192.47656 407.11523 192.47656 C 406.02012 192.47656 404.37773 192.57628 402.1875 192.77539 L 402.1875 185.45703 C 402.1875 184.56103 402.16306 183.86497 402.11328 183.36719 C 402.11328 182.86941 401.98912 182.2975 401.74023 181.65039 C 401.54112 180.9535 401.21753 180.45492 400.76953 180.15625 C 400.32153 179.8078 399.67435 179.50866 398.82812 179.25977 C 398.03168 179.01088 397.01007 178.88672 395.76562 178.88672 C 394.17273 178.88672 392.90476 179.03727 391.95898 179.33594 C 391.0132 179.58483 390.33963 180.05702 389.94141 180.75391 C 389.59296 181.40102 389.36909 181.99932 389.26953 182.54688 C 389.21975 183.09443 389.19531 183.93909 389.19531 185.08398 L 389.19531 192.77539 L 382.25195 192.47656 C 380.21106 192.47656 377.82177 192.57628 375.08398 192.77539 L 375.08398 188.66797 C 375.08398 187.42352 376.00392 186.80273 377.8457 186.80273 L 379.9375 186.80273 C 380.43528 186.75296 381.00718 186.62685 381.6543 186.42773 C 382.35119 186.17884 382.87421 185.85525 383.22266 185.45703 C 383.5711 185.00903 383.8683 184.3638 384.11719 183.51758 C 384.36608 182.62158 384.49219 181.55109 384.49219 180.30664 C 384.49219 178.71375 384.34164 177.44383 384.04297 176.49805 C 383.7443 175.55227 383.22128 174.90509 382.47461 174.55664 C 381.72794 174.15842 381.05632 173.93454 380.45898 173.88477 C 379.91143 173.78521 379.06481 173.73438 377.91992 173.73438 z M 330.50781 176.125 C 324.48469 176.125 319.60639 178.1907 315.87305 182.32227 C 312.18948 186.40405 310.34766 191.03404 310.34766 196.21094 L 310.34766 198.375 C 310.39743 198.823 310.52159 199.39491 310.7207 200.0918 C 310.96959 200.73891 311.31762 201.23749 311.76562 201.58594 C 312.21363 201.93438 312.86081 202.23353 313.70703 202.48242 C 314.55326 202.73131 315.62374 202.85547 316.91797 202.85547 C 318.51086 202.85547 319.78078 202.73131 320.72656 202.48242 C 321.67234 202.18375 322.34396 201.70961 322.74219 201.0625 C 323.14041 200.36561 323.36428 199.74482 323.41406 199.19727 C 323.51362 198.64971 323.5625 197.82754 323.5625 196.73242 L 323.5625 196.28516 L 323.86133 194.56641 C 324.01066 193.42151 324.65784 192.2777 325.80273 191.13281 C 326.9974 189.93814 328.59092 189.33984 330.58203 189.33984 C 331.7767 189.33984 332.82275 189.56372 333.71875 190.01172 C 334.61475 190.45972 335.26193 190.9583 335.66016 191.50586 C 336.10816 192.00364 336.48063 192.60194 336.7793 193.29883 C 337.07796 193.99572 337.25296 194.49235 337.30273 194.79102 C 337.35251 195.03991 337.37695 195.23934 337.37695 195.38867 C 337.37695 197.62868 336.43062 199.74521 334.53906 201.73633 C 332.69728 203.72744 330.45659 205.51844 327.81836 207.11133 C 325.18013 208.65444 322.54253 210.24795 319.9043 211.89062 C 317.26607 213.48352 315.00093 215.42506 313.10938 217.71484 C 311.26759 219.95485 310.34766 222.41746 310.34766 225.10547 C 310.34766 226.89747 310.99484 228.46654 312.28906 229.81055 C 313.58329 231.15455 315.12596 231.82617 316.91797 231.82617 L 346.11328 231.82617 C 347.25817 231.82617 348.12923 231.77729 348.72656 231.67773 C 349.37368 231.57818 350.0453 231.35235 350.74219 231.00391 C 351.48886 230.60568 352.01188 229.93406 352.31055 228.98828 C 352.65899 228.0425 352.83203 226.79897 352.83203 225.25586 C 352.83203 223.66297 352.68343 222.39305 352.38477 221.44727 C 352.0861 220.45171 351.58752 219.78009 350.89062 219.43164 C 350.19373 219.03342 349.54655 218.7851 348.94922 218.68555 C 348.35188 218.58599 347.45639 218.53516 346.26172 218.53516 L 332.59766 218.53516 L 332.59766 218.16211 L 334.46484 217.41602 C 335.70929 216.91824 337.20309 216.09606 338.94531 214.95117 C 340.73732 213.7565 342.50387 212.38882 344.24609 210.8457 C 346.0381 209.25281 347.55633 207.18516 348.80078 204.64648 C 350.04523 202.10781 350.66797 199.42132 350.66797 196.58398 C 350.66797 191.25775 348.79975 186.52805 345.06641 182.39648 C 341.33306 178.21514 336.48116 176.125 330.50781 176.125 z M 281.22656 176.87109 C 280.60076 176.87109 280.03556 176.90117 279.50195 176.94727 L 287.79883 201.94727 L 287.79883 183.51758 C 287.79883 182.37269 287.74799 181.50163 287.64844 180.9043 C 287.59866 180.30696 287.37479 179.65978 286.97656 178.96289 C 286.57834 178.21622 285.90672 177.6932 284.96094 177.39453 C 284.01516 177.04609 282.76968 176.87109 281.22656 176.87109 z M 299.66992 217.78906 C 297.97747 217.78906 296.60784 217.9621 295.5625 218.31055 C 294.71783 218.60618 294.10218 219.07328 293.6875 219.69141 L 297.6543 231.64258 C 298.24577 231.71433 298.89148 231.75195 299.5957 231.75195 C 301.28815 231.75195 302.6314 231.6014 303.62695 231.30273 C 304.62251 230.95429 305.32053 230.38238 305.71875 229.58594 C 306.16675 228.78949 306.41507 228.11787 306.46484 227.57031 C 306.5644 226.97298 306.61328 226.07748 306.61328 224.88281 L 306.61328 224.58398 C 306.61328 221.94576 306.18997 220.20365 305.34375 219.35742 C 304.19886 218.31209 302.30815 217.78906 299.66992 217.78906 z "
       transform="matrix(0.26458333,0,0,0.26458333,62.744057,64.166679)" />
    <text
       xml:space="preserve"
       style="font-style:normal;font-variant:normal;font-weight:normal;font-stretch:normal;font-size:19.7556px;line-height:1.25;font-family:'Fredoka One';-inkscape-font-specification:'Fredoka One, Normal';font-variant-ligatures:normal;font-variant-caps:normal;font-variant-numeric:normal;font-feature-settings:normal;text-align:start;letter-spacing:0px;word-spacing:0px;writing-mode:lr-tb;text-anchor:start;display:inline;fill:#0e57bb;fill-opacity:1;stroke:none;stroke-width:0.264583"
       x="69.184746"
       y="105.4969"
       id="text4634-6-0-5"><tspan
         sodipodi:role="line"
         id="tspan4632-80-6-8"
         x="69.184746"
         y="105.4969"
         style="font-style:normal;font-variant:normal;font-weight:normal;font-stretch:normal;font-size:19.7556px;font-family:'Fredoka One';-inkscape-font-specification:'Fredoka One, Normal';font-variant-ligatures:normal;font-variant-caps:normal;font-variant-numeric:normal;font-feature-settings:normal;text-align:start;writing-mode:lr-tb;text-anchor:start;fill:#0e57bb;fill-opacity:1;stroke-width:0.264583">158T</tspan></text>
    <path
       id="text4634-6-4-7"
       style="font-style:normal;font-variant:normal;font-weight:normal;font-stretch:normal;font-size:19.7556px;line-height:1.25;font-family:'Fredoka One';-inkscape-font-specification:'Fredoka One, Normal';font-variant-ligatures:normal;font-variant-caps:normal;font-variant-numeric:normal;font-feature-settings:normal;text-align:start;letter-spacing:0px;word-spacing:0px;writing-mode:lr-tb;text-anchor:start;display:inline;fill:#0e57bb;fill-opacity:1;stroke:none;stroke-width:0.999999"
       d="m 114.0918,246.57812 c -3.43468,0 -6.52003,1.29437 -9.25782,3.88282 -2.688,2.53867 -4.0332,5.77262 -4.0332,9.70508 0,3.88267 1.36964,7.09414 4.10742,9.63281 2.78756,2.48889 5.87292,3.73437 9.25782,3.73437 3.33511,0 6.37159,-1.22104 9.10937,-3.66015 2.78756,-2.4889 4.18164,-5.74924 4.18164,-9.78125 0,-3.93246 -1.34324,-7.16836 -4.03125,-9.70703 -2.688,-2.53868 -5.79975,-3.80664 -9.33398,-3.80665 z m -47.039066,2.31446 c -1.095113,0 -1.992562,0.27275 -2.689453,0.82031 -0.647112,0.54756 -1.09486,1.12142 -1.34375,1.71875 -0.199111,0.59734 -0.447426,1.46839 -0.746093,2.61328 l -6.197266,25.01172 c -0.149334,0.64711 -0.22461,1.44485 -0.22461,2.39063 v 2.16406 c 0.04978,0.448 0.173936,1.02186 0.373047,1.71875 0.24889,0.64711 0.598874,1.14374 1.046875,1.49219 0.448001,0.34844 1.095183,0.64759 1.941407,0.89648 0.846224,0.24889 1.914759,0.37305 3.208984,0.37305 h 20.236328 v 9.10937 2.16602 c 0.04978,0.448 0.173935,1.0199 0.373047,1.71679 0.248889,0.64712 0.596921,1.1457 1.044922,1.49414 0.448001,0.34845 1.095182,0.6476 1.941406,0.89649 0.846224,0.24889 1.916712,0.37305 3.210938,0.37305 1.592892,0 2.862813,-0.15056 3.808593,-0.44922 0.995558,-0.29867 1.66718,-0.7953 2.015625,-1.49219 0.398223,-0.74667 0.646538,-1.41829 0.746094,-2.01563 0.09956,-0.59733 0.148438,-1.47034 0.148438,-2.61523 v -41.51367 c 0,-1.14489 -0.04888,-2.01595 -0.148438,-2.61328 -0.04978,-0.59734 -0.273652,-1.24452 -0.671875,-1.94141 -0.398223,-0.74667 -1.069845,-1.26969 -2.015625,-1.56836 -0.94578,-0.34844 -2.19126,-0.52344 -3.734375,-0.52344 -1.592892,0 -2.887255,0.15056 -3.882812,0.44922 -0.94578,0.24889 -1.617402,0.72108 -2.015625,1.41797 -0.398223,0.69689 -0.646538,1.31963 -0.746094,1.86719 -0.04978,0.54756 -0.07422,1.39417 -0.07422,2.53906 v 20.38281 H 70.486328 l 4.554688,-18.21875 v -0.14843 l 0.07422,-0.0742 c 0.348446,-1.29423 0.523438,-2.34027 0.523438,-3.13672 0,-2.24001 -1.74211,-3.83352 -5.226563,-4.7793 -1.244447,-0.34844 -2.363817,-0.52148 -3.359375,-0.52148 z m -21.876953,0.22265 c -1.742226,0 -3.260462,0.64719 -4.554687,1.94141 l -0.22461,0.15039 -12.246093,11.05078 c -1.792004,1.59289 -2.6875,3.03586 -2.6875,4.33008 0,1.39378 0.895496,3.08701 2.6875,5.07813 1.344003,1.49333 2.788916,2.24023 4.332031,2.24023 1.344003,0 3.035278,-0.77134 5.076172,-2.31445 l 0.970703,-0.89649 v 26.65625 c 0,1.19467 0.02444,2.11461 0.07422,2.76172 0.09956,0.59734 0.349823,1.26896 0.748046,2.01563 0.398224,0.69689 1.069846,1.19547 2.015626,1.49414 0.945779,0.29866 2.189307,0.44726 3.732421,0.44726 1.592893,0 2.862814,-0.1486 3.808594,-0.44726 0.94578,-0.29867 1.617402,-0.82169 2.015625,-1.56836 0.398223,-0.74667 0.622097,-1.39385 0.671875,-1.94141 0.09956,-0.59733 0.150391,-1.46839 0.150391,-2.61328 v -41.58984 c 0,-0.99556 -0.02639,-1.71607 -0.07617,-2.16407 0,-0.49778 -0.124158,-1.09607 -0.373047,-1.79297 -0.199112,-0.74666 -0.522702,-1.26969 -0.970703,-1.56835 -0.448001,-0.34845 -1.095182,-0.64565 -1.941406,-0.89454 -0.846224,-0.24889 -1.91476,-0.375 -3.208985,-0.375 z m 68.916019,6.12305 c 1.19467,0 2.2896,0.39887 3.28515,1.19531 0.99556,0.79645 1.49414,1.9911 1.49414,3.58399 0,1.64267 -0.52302,2.86176 -1.56836,3.6582 -1.04533,0.79645 -2.11582,1.19531 -3.21093,1.19531 -1.09512,0 -2.1656,-0.39886 -3.21094,-1.19531 -0.99556,-0.79644 -1.49219,-1.99109 -1.49219,-3.58398 0,-1.5929 0.49663,-2.78754 1.49219,-3.58399 1.04534,-0.84622 2.11582,-1.26953 3.21094,-1.26953 z"
       transform="matrix(0.26458333,0,0,0.26458333,62.744057,64.166679)"
       sodipodi:nodetypes="scscscssssccccsccsssccccsssccssscccscscscccccscsscccsssccsccsssscsscccssssssscscs" />
    <path
       id="text4634-6-8-4"
       style="font-style:normal;font-variant:normal;font-weight:normal;font-stretch:normal;font-size:19.7556px;line-height:1.25;font-family:'Fredoka One';-inkscape-font-specification:'Fredoka One, Normal';font-variant-ligatures:normal;font-variant-caps:normal;font-variant-numeric:normal;font-feature-settings:normal;text-align:start;letter-spacing:0px;word-spacing:0px;writing-mode:lr-tb;text-anchor:start;display:inline;fill:#0e57bb;fill-opacity:1;stroke:none;stroke-width:0.999999"
       d="M 78.251953 174.49414 C 74.767501 174.49414 71.706588 175.19216 69.068359 176.58594 C 66.479909 177.92994 64.46309 179.62122 63.019531 181.66211 C 61.575972 183.65322 60.407721 186.01808 59.511719 188.75586 C 58.615717 191.44387 58.017417 193.88204 57.71875 196.07227 C 57.469861 198.26249 57.345703 200.47874 57.345703 202.71875 C 57.345703 205.15787 57.469861 207.52272 57.71875 209.8125 C 58.017417 212.10228 58.615717 214.59129 59.511719 217.2793 C 60.457499 219.9673 61.652144 222.28132 63.095703 224.22266 C 64.58904 226.16399 66.628347 227.80639 69.216797 229.15039 C 71.855025 230.44462 74.917891 231.0918 78.402344 231.0918 C 81.687684 231.0918 84.598046 230.44462 87.136719 229.15039 C 89.725169 227.85617 91.741988 226.23821 93.185547 224.29688 C 94.629106 222.30576 95.79931 219.99174 96.695312 217.35352 C 97.641092 214.71529 98.263833 212.25072 98.5625 209.96094 C 98.861167 207.62138 99.009766 205.23209 99.009766 202.79297 C 99.009766 200.50319 98.861167 198.23805 98.5625 195.99805 C 98.263833 193.70826 97.665533 191.21926 96.769531 188.53125 C 95.873529 185.84324 94.678884 183.50479 93.185547 181.51367 C 91.741988 179.52256 89.725169 177.85377 87.136719 176.50977 C 84.598046 175.16576 81.63685 174.49414 78.251953 174.49414 z M 143.58594 175.01758 C 142.49082 175.01758 141.59533 175.29033 140.89844 175.83789 C 140.25132 176.38545 139.80162 176.95931 139.55273 177.55664 C 139.35362 178.15398 139.10531 179.02503 138.80664 180.16992 L 132.60938 205.18164 C 132.46004 205.82875 132.38477 206.62649 132.38477 207.57227 L 132.38477 209.73633 C 132.43454 210.18433 132.56065 210.75819 132.75977 211.45508 C 133.00866 212.10219 133.35669 212.59882 133.80469 212.94727 C 134.25269 213.29571 134.89987 213.59486 135.74609 213.84375 C 136.59232 214.09264 137.66281 214.2168 138.95703 214.2168 L 153.66211 214.2168 L 158.48438 201.89648 L 147.01953 201.89648 L 151.57422 183.67773 L 151.57422 183.5293 L 151.65039 183.45508 C 151.99884 182.16085 152.17188 181.11481 152.17188 180.31836 C 152.17188 178.07835 150.42976 176.48484 146.94531 175.53906 C 145.70087 175.19062 144.5815 175.01758 143.58594 175.01758 z M 45.921875 175.24023 C 44.179649 175.24023 42.661413 175.88742 41.367188 177.18164 L 41.142578 177.33203 L 28.896484 188.38281 C 27.10448 189.9757 26.208984 191.41867 26.208984 192.71289 C 26.208984 194.10667 27.10448 195.7999 28.896484 197.79102 C 30.240487 199.28435 31.685401 200.03125 33.228516 200.03125 C 34.572519 200.03125 36.263794 199.25796 38.304688 197.71484 L 39.275391 196.82031 L 39.275391 223.47656 C 39.275391 224.67123 39.301785 225.59117 39.351562 226.23828 C 39.451118 226.83562 39.699433 227.50724 40.097656 228.25391 C 40.495879 228.9508 41.167501 229.44938 42.113281 229.74805 C 43.059061 230.04671 44.304542 230.19531 45.847656 230.19531 C 47.440549 230.19531 48.708517 230.04671 49.654297 229.74805 C 50.600077 229.44938 51.271699 228.92636 51.669922 228.17969 C 52.068145 227.43302 52.293972 226.78584 52.34375 226.23828 C 52.443306 225.64095 52.492188 224.76989 52.492188 223.625 L 52.492188 182.03516 C 52.492188 181.0396 52.467747 180.31909 52.417969 179.87109 C 52.417969 179.37331 52.293811 178.77502 52.044922 178.07812 C 51.84581 177.33146 51.52222 176.80843 51.074219 176.50977 C 50.626218 176.16132 49.979037 175.86412 49.132812 175.61523 C 48.286588 175.36634 47.2161 175.24023 45.921875 175.24023 z M 121.70898 175.24023 C 119.96676 175.24023 118.44852 175.88742 117.1543 177.18164 L 116.92969 177.33203 L 104.68359 188.38281 C 102.89159 189.9757 101.99609 191.41867 101.99609 192.71289 C 101.99609 194.10667 102.89159 195.7999 104.68359 197.79102 C 106.0276 199.28435 107.47251 200.03125 109.01562 200.03125 C 110.35963 200.03125 112.0509 199.25796 114.0918 197.71484 L 115.0625 196.82031 L 115.0625 223.47656 C 115.0625 224.67123 115.08694 225.59117 115.13672 226.23828 C 115.23627 226.83562 115.48654 227.50724 115.88477 228.25391 C 116.28299 228.9508 116.95461 229.44938 117.90039 229.74805 C 118.84617 230.04671 120.0897 230.19531 121.63281 230.19531 C 123.2257 230.19531 124.49563 230.04671 125.44141 229.74805 C 126.38719 229.44938 127.05881 228.92636 127.45703 228.17969 C 127.85525 227.43302 128.07913 226.78584 128.12891 226.23828 C 128.22846 225.64095 128.2793 224.76989 128.2793 223.625 L 128.2793 182.03516 C 128.2793 181.0396 128.25486 180.31909 128.20508 179.87109 C 128.20508 179.37331 128.07897 178.77502 127.83008 178.07812 C 127.63097 177.33146 127.30738 176.80843 126.85938 176.50977 C 126.41137 176.16132 125.76419 175.86412 124.91797 175.61523 C 124.07174 175.36634 123.00321 175.24023 121.70898 175.24023 z M 165.91016 175.24023 C 164.31726 175.24023 163.0229 175.39079 162.02734 175.68945 C 161.08156 175.93834 160.40994 176.41053 160.01172 177.10742 C 159.6135 177.80431 159.36518 178.42705 159.26562 178.97461 C 159.21585 179.52217 159.19141 180.36878 159.19141 181.51367 L 159.19141 200.08984 L 168.80664 175.52148 C 167.9989 175.33611 167.03569 175.24023 165.91016 175.24023 z M 78.177734 187.71094 C 83.255079 187.71094 85.792969 192.71339 85.792969 202.71875 L 85.792969 203.16602 C 85.792969 212.92248 83.230638 217.80078 78.103516 217.80078 C 73.075949 217.80078 70.560547 212.79832 70.560547 202.79297 C 70.560547 192.73784 73.10039 187.71094 78.177734 187.71094 z "
       transform="matrix(0.26458333,0,0,0.26458333,62.744057,64.166679)" />
  </g>
  <g
     inkscape:groupmode="layer"
     id="layer1"
     inkscape:label="Rounded box"
     style="display:none">
    <path
       style="fill:#ff00ff;fill-opacity:1;stroke:none;stroke-width:37.9081;stroke-linejoin:round;stroke-miterlimit:4;stroke-dasharray:none;stroke-opacity:1"
       d="M -1.0973919,-1.991976 V 106.98381 H 117.41061 V -1.991976 Z M 6.155912,0.49676094 H 110.15627 a 5.0005001,5.0005001 0 0 1 4.99969,4.99969476 V 99.496398 a 5.0005001,5.0005001 0 0 1 -4.99969,5.000232 H 6.155912 A 5.0005001,5.0005001 0 0 1 1.1562173,99.496398 V 5.4964557 A 5.0005001,5.0005001 0 0 1 6.155912,0.49676094 Z"
       id="rect4628"
       inkscape:connector-curvature="0" />
  </g>
</svg>
